<?xml version="1.0" encoding="UTF-8" standalone="no"?>
<!DOCTYPE svg PUBLIC "-//W3C//DTD SVG 1.1//EN" "http://www.w3.org/Graphics/SVG/1.1/DTD/svg11.dtd">
<svg xmlns="http://www.w3.org/2000/svg" version="1.1" viewBox="0 0 499 581">
<g stroke-width="2.00" fill="none" stroke-linecap="butt">
<path stroke="#80abbc" vector-effect="non-scaling-stroke" d="
  M 222.25 54.21
  L 221.14 54.27
  C 220.80 54.29 220.49 54.43 220.25 54.66
  L 61.59 205.42
  C 61.35 205.64 61.23 205.96 61.24 206.29
  L 61.29 207.25"
/>
<path stroke="#80c9e4" vector-effect="non-scaling-stroke" d="
  M 61.29 207.25
  L 61.29 259.50"
/>
<path stroke="#80bdd5" vector-effect="non-scaling-stroke" d="
  M 61.29 259.50
  L 61.29 359.50"
/>
<path stroke="#80b3c7" vector-effect="non-scaling-stroke" d="
  M 61.29 359.50
  C 61.30 382.67 61.30 405.83 61.31 429.00
  C 61.31 436.24 63.02 441.81 65.54 448.25"
/>
<path stroke="#80abbc" vector-effect="non-scaling-stroke" d="
  M 65.54 448.25
  C 85.34 504.67 130.29 546.07 189.07 558.73
  C 217.92 564.94 244.07 563.61 276.72 563.49
  C 277.04 563.49 277.35 563.36 277.57 563.14
  C 279.37 561.39 281.62 559.03 284.31 556.06
  C 325.00 511.31 361.64 463.27 391.56 411.07
  C 399.35 397.48 406.42 383.54 412.79 369.25"
/>
<path stroke="#80b3c7" vector-effect="non-scaling-stroke" d="
  M 412.79 369.25
  C 426.09 340.40 436.53 307.34 437.71 275.25"
/>
<path stroke="#80bdd5" vector-effect="non-scaling-stroke" d="
  M 437.71 275.25
  C 437.78 274.64 437.82 274.04 437.83 273.44
  C 437.91 236.37 437.95 199.31 437.96 162.25"
/>
<path stroke="#80c9e4" vector-effect="non-scaling-stroke" d="
  M 437.96 162.25
  L 437.94 88.50"
/>
<path stroke="#80d3f2" vector-effect="non-scaling-stroke" d="
  M 437.94 88.50
  L 438.12 38.51
  C 438.12 38.27 437.98 38.06 437.76 37.98
  L 400.65 24.02
  C 399.94 23.75 399.18 23.68 398.44 23.81
  C 340.79 33.70 283.56 43.54 226.77 53.34
  C 225.26 53.60 223.75 53.89 222.25 54.21"
/>
<path stroke="#019cd7" vector-effect="non-scaling-stroke" d="
  M 437.94 88.50
  L 436.79 103.44
  C 436.76 103.76 436.63 104.07 436.40 104.30
  C 434.22 106.54 434.28 109.41 432.63 111.41
  C 430.10 114.50 426.65 115.86 422.30 115.47
  C 421.93 115.44 421.56 115.52 421.23 115.70
  C 419.24 116.80 417.48 116.60 415.94 115.11
  C 415.61 114.79 415.44 114.86 415.43 115.31
  L 415.33 117.99
  C 415.32 118.41 415.15 118.48 414.82 118.21
  C 412.66 116.40 412.95 112.69 412.45 110.00
  C 411.09 102.77 412.12 93.98 411.79 86.50"
/>
<path stroke="#5cc7f0" vector-effect="non-scaling-stroke" d="
  M 411.79 86.50
  L 411.87 76.73
  C 411.87 76.44 411.61 76.21 411.32 76.26
  L 387.00 80.29"
/>
<path stroke="#70cdf1" vector-effect="non-scaling-stroke" d="
  M 387.00 80.29
  L 276.75 98.79"
/>
<path stroke="#80d3f2" vector-effect="non-scaling-stroke" d="
  M 276.75 98.79
  L 274.75 99.29"
/>
<path stroke="#019cd7" vector-effect="non-scaling-stroke" d="
  M 274.75 99.29
  C 274.16 97.73 272.89 98.06 271.97 99.09
  C 269.45 101.92 266.72 104.51 263.78 106.87
  C 263.60 107.01 263.38 107.11 263.15 107.14
  C 262.10 107.29 261.09 107.22 260.12 106.92
  C 259.77 106.81 259.39 106.81 259.03 106.92
  L 250.24 109.74
  C 249.96 109.83 249.66 109.79 249.41 109.62
  C 249.24 109.50 241.92 111.90 240.42 112.00
  C 233.75 112.45 227.43 114.25 221.48 117.38
  C 221.19 117.53 220.93 117.74 220.71 117.99
  C 219.45 119.45 214.32 119.12 212.49 119.01
  C 211.96 118.98 211.90 118.79 212.30 118.44
  L 217.48 113.92
  C 217.71 113.72 217.66 113.36 217.39 113.22
  C 216.76 112.88 216.55 112.41 216.74 111.80
  C 216.89 111.31 216.70 111.23 216.15 111.56
  C 215.67 111.85 215.29 111.81 215.00 111.46"
/>
<path stroke="#017fae" vector-effect="non-scaling-stroke" d="
  M 215.00 111.46
  L 251.91 76.31
  C 252.11 76.12 252.09 75.79 251.86 75.64
  L 222.97 55.60
  C 222.72 55.42 222.60 55.12 222.65 54.81
  C 222.72 54.45 222.58 54.25 222.25 54.21"
/>
<path stroke="#6faec6" vector-effect="non-scaling-stroke" d="
  M 130.79 361.00
  L 130.71 350.75"
/>
<path stroke="#70b8d4" vector-effect="non-scaling-stroke" d="
  M 130.71 350.75
  L 130.79 311.75"
/>
<path stroke="#effaff" vector-effect="non-scaling-stroke" d="
  M 130.79 311.75
  L 131.19 306.49
  C 131.34 304.62 131.51 304.61 131.71 306.48
  L 131.74 306.76
  C 131.94 308.59 132.03 308.59 132.01 306.74
  L 131.99 304.81
  C 131.99 304.56 132.25 304.40 132.47 304.52
  C 136.17 306.54 144.98 294.32 147.83 290.63
  C 147.91 290.54 147.89 290.49 147.76 290.50
  L 147.49 290.51
  C 146.72 290.56 146.77 290.45 147.62 290.19
  C 148.64 289.88 151.54 285.46 152.97 284.30
  C 157.27 280.81 160.79 275.71 163.81 272.38
  C 167.25 268.58 170.41 264.13 173.54 260.65
  C 178.82 254.77 184.12 248.91 189.43 243.06
  C 191.90 240.34 195.22 235.96 198.57 232.76
  C 199.80 231.58 200.31 229.85 201.40 228.90
  C 204.23 226.43 207.07 223.36 209.93 219.69
  C 216.76 210.94 225.37 202.85 232.20 194.35
  C 238.29 186.77 243.02 182.36 247.02 177.13
  C 250.35 172.77 253.14 169.57 256.27 165.79
  C 258.81 162.72 262.60 160.31 264.88 156.20
  C 264.97 156.05 264.92 155.98 264.75 156.00
  L 264.40 156.03
  C 264.05 156.07 263.98 155.95 264.18 155.66
  C 264.78 154.77 265.56 154.20 266.53 153.95
  C 266.87 153.87 267.16 153.65 267.35 153.35
  C 269.02 150.63 271.35 148.72 274.35 147.61
  C 274.46 147.57 274.58 147.61 274.65 147.69
  C 274.78 147.86 274.85 147.88 274.85 147.75
  C 275.11 132.92 275.25 118.10 275.26 103.27
  C 275.26 102.94 275.36 102.63 275.54 102.36
  C 276.26 101.29 276.66 100.10 276.75 98.79"
/>
<path stroke="#0175a1" vector-effect="non-scaling-stroke" d="
  M 215.00 111.46
  L 90.44 229.91
  C 90.26 230.09 89.97 230.10 89.77 229.94
  L 62.95 207.58
  C 62.70 207.37 62.38 207.25 62.05 207.25
  L 61.29 207.25"
/>
<path stroke="#80c9e4" vector-effect="non-scaling-stroke" d="
  M 274.75 99.29
  C 226.55 144.64 179.04 190.78 131.29 236.63
  C 131.06 236.85 130.92 237.16 130.91 237.49
  L 130.70 245.48"
/>
<path stroke="#0187ba" vector-effect="non-scaling-stroke" d="
  M 130.70 245.48
  L 129.74 252.19
  C 129.71 252.41 129.66 252.42 129.59 252.21
  L 128.96 250.33
  C 128.85 250.02 128.48 249.89 128.21 250.07
  C 122.60 253.71 116.52 256.10 109.97 257.25
  C 102.97 258.47 95.42 262.87 88.51 262.70
  C 82.89 262.57 79.39 262.67 78.00 263.01
  C 73.83 264.03 65.13 266.14 62.64 263.10
  C 62.61 263.06 62.59 263.06 62.58 263.11
  L 62.50 263.36
  C 62.44 263.57 62.38 263.57 62.33 263.36
  L 61.29 259.50"
/>
<path stroke="#80bdd5" vector-effect="non-scaling-stroke" d="
  M 130.79 311.75
  L 130.70 245.48"
/>
<path stroke="#0187ba" vector-effect="non-scaling-stroke" d="
  M 437.96 162.25
  C 437.47 165.43 438.17 169.83 435.24 172.03
  C 434.99 172.22 434.80 172.49 434.70 172.80
  C 433.78 175.69 429.76 176.73 427.18 177.83
  C 426.88 177.95 426.55 177.99 426.23 177.94
  C 423.82 177.53 422.17 176.87 421.29 175.97
  C 418.70 173.33 415.59 171.60 411.98 170.78"
/>
<path stroke="#4cb8e1" vector-effect="non-scaling-stroke" d="
  M 411.98 170.78
  C 411.70 167.67 411.69 163.47 411.94 158.19
  C 412.25 151.76 412.17 142.03 411.71 129.00"
/>
<path stroke="#5cbde2" vector-effect="non-scaling-stroke" d="
  M 411.79 86.50
  L 411.71 129.00"
/>
<path stroke="#a7e3fa" vector-effect="non-scaling-stroke" d="
  M 411.71 129.00
  L 411.43 129.00
  C 411.19 128.99 411.00 129.19 411.00 129.43
  L 411.00 134.96
  C 411.00 135.26 410.88 135.33 410.63 135.16
  C 409.41 134.35 406.45 137.32 405.41 138.00
  C 398.88 142.28 394.04 149.72 388.50 150.00
  C 383.83 150.24 379.46 151.18 375.39 152.81
  C 371.42 154.39 367.26 154.41 363.53 156.29
  C 361.48 157.32 359.50 158.48 357.61 159.77
  C 356.72 160.38 355.23 161.18 353.12 162.18
  C 348.82 164.22 347.26 168.02 344.61 170.71
  C 342.74 172.59 340.83 174.42 338.86 176.20
  C 337.67 177.27 337.07 178.67 335.66 179.71
  C 334.01 180.92 333.16 181.56 333.09 181.62
  C 323.63 190.14 312.40 196.25 300.87 202.73
  C 296.79 205.03 292.40 208.17 287.96 210.62
  C 286.26 211.55 285.00 212.60 283.45 213.71
  C 283.23 213.87 283.11 213.81 283.10 213.54
  L 283.08 213.19
  C 283.06 212.93 282.81 212.74 282.56 212.81
  C 280.35 213.38 278.38 214.42 276.63 215.91
  C 276.52 216.00 276.36 215.99 276.26 215.89
  L 275.95 215.57
  C 275.46 215.06 275.21 215.16 275.22 215.87
  C 275.34 232.51 275.20 248.78 274.81 264.69
  C 274.69 269.58 270.23 275.88 267.49 279.48
  C 262.02 286.67 255.73 294.22 248.62 302.14
  C 244.18 307.08 236.73 313.95 230.05 314.80
  C 223.64 315.62 217.49 317.30 211.58 319.85
  C 211.28 319.98 211.02 320.19 210.84 320.45
  C 210.65 320.72 210.45 320.90 210.25 320.99
  C 206.68 322.54 204.29 324.32 203.08 326.34
  C 201.87 328.38 200.42 329.33 199.45 330.61
  C 195.58 335.72 192.04 341.04 188.81 346.57
  C 183.68 355.35 181.96 365.98 181.24 375.94
  C 181.22 376.25 181.20 376.25 181.19 375.94
  L 181.10 373.06
  C 181.09 372.73 181.05 372.73 181.00 373.06
  C 180.13 378.53 178.28 382.45 174.45 386.91
  C 168.38 393.96 162.26 400.96 156.08 407.91
  C 155.87 408.14 155.76 408.44 155.76 408.76
  L 155.76 409.15
  C 155.76 409.46 155.66 409.77 155.47 410.02
  C 152.16 414.33 148.58 418.40 144.71 422.24
  C 142.76 424.18 141.77 426.91 139.35 428.79
  C 137.94 429.88 136.93 430.75 136.32 431.40
  C 134.88 432.92 131.09 436.03 130.79 432.00"
/>
<path stroke="#5ca8c5" vector-effect="non-scaling-stroke" d="
  M 130.79 432.00
  L 130.79 361.00"
/>
<path stroke="#cbeefd" vector-effect="non-scaling-stroke" d="
  M 130.79 361.00
  L 131.12 358.85
  C 131.15 358.70 131.21 358.68 131.31 358.79
  L 131.67 359.17
  C 131.92 359.44 132.03 359.39 132.01 359.03
  L 131.99 358.64
  C 131.98 358.41 132.03 358.40 132.15 358.59
  C 132.63 359.34 133.15 359.46 133.71 358.97
  C 135.64 357.25 137.25 356.00 138.54 355.23
  C 138.61 355.19 138.61 355.15 138.54 355.12
  L 138.25 354.99
  C 138.09 354.91 138.05 354.69 138.17 354.56
  C 162.10 328.61 176.21 311.75 201.32 283.07
  C 211.09 271.90 228.76 250.56 249.19 227.93
  C 249.39 227.70 249.50 227.41 249.50 227.11
  L 249.50 222.77
  C 249.50 222.45 249.61 222.15 249.81 221.92
  C 255.84 214.94 262.14 208.17 267.72 200.84
  C 269.26 198.83 271.15 197.16 273.39 195.83
  C 273.62 195.70 273.92 195.78 274.03 196.02
  L 274.16 196.30
  C 274.25 196.48 274.49 196.50 274.61 196.34
  C 275.04 195.73 275.26 195.04 275.25 194.25
  C 275.18 181.02 275.08 167.79 274.95 154.55
  C 274.95 154.15 275.08 154.10 275.33 154.41
  C 275.49 154.60 275.54 154.80 275.48 154.99
  C 275.32 155.49 275.55 155.58 276.16 155.26
  C 282.30 152.05 288.37 148.72 294.38 145.27
  C 295.01 144.91 295.96 144.47 297.23 143.94
  C 299.60 142.97 302.65 140.79 303.96 140.08
  C 307.43 138.19 310.87 136.22 314.27 134.19
  C 315.14 133.67 315.40 132.86 316.15 132.38
  C 318.20 131.09 320.76 129.58 323.83 127.87
  C 327.55 125.79 332.78 122.12 337.60 119.79
  C 343.22 117.05 348.10 113.38 353.76 110.69
  C 354.05 110.55 354.30 110.32 354.48 110.05
  C 355.26 108.86 355.56 108.25 356.94 107.58
  C 360.53 105.83 363.70 103.01 366.70 101.24
  C 369.09 99.84 371.47 98.41 373.82 96.96
  C 374.08 96.80 374.24 96.52 374.24 96.22
  L 374.25 95.09
  C 374.26 94.79 374.41 94.51 374.66 94.34
  C 377.09 92.79 378.46 91.34 381.40 90.14
  C 384.38 88.93 386.27 85.45 388.12 82.99
  C 388.29 82.76 388.28 82.44 388.08 82.23
  L 387.62 81.74
  C 387.49 81.60 387.50 81.38 387.63 81.25
  L 387.99 80.91
  C 388.24 80.66 388.20 80.55 387.85 80.56
  C 387.48 80.57 387.20 80.48 387.00 80.29"
/>
<path stroke="#01719c" vector-effect="non-scaling-stroke" d="
  M 130.71 350.75
  L 130.41 349.75
  C 130.33 349.48 130.29 349.48 130.28 349.77
  L 130.16 357.76
  C 130.15 358.73 130.03 358.71 129.82 357.71
  C 128.96 353.74 125.94 357.47 124.68 356.58
  C 124.45 356.42 124.15 356.36 123.87 356.44
  L 118.44 358.01
  C 118.11 358.11 117.80 358.25 117.51 358.44
  C 115.45 359.79 112.72 359.51 110.94 360.05
  C 105.51 361.70 100.29 362.73 95.30 363.14
  C 91.54 363.45 88.82 365.22 85.37 365.24
  C 80.32 365.27 74.93 365.73 69.20 366.64
  C 66.45 367.07 64.27 366.17 62.68 363.93
  C 62.65 363.88 62.58 363.87 62.52 363.90
  L 62.28 364.01
  C 62.23 364.04 62.17 364.01 62.15 363.95
  L 61.29 359.50"
/>
<path stroke="#015f83" vector-effect="non-scaling-stroke" d="
  M 130.71 435.50
  L 130.30 436.48
  C 130.21 436.70 130.13 436.69 130.07 436.46
  L 129.98 436.14
  C 129.93 435.92 129.70 435.80 129.48 435.87
  C 125.31 437.28 121.56 439.27 117.30 439.96
  C 114.75 440.38 112.19 440.76 109.62 441.09
  C 104.77 441.72 99.57 443.47 94.30 443.98
  C 94.00 444.00 93.71 443.88 93.53 443.64
  C 93.06 443.00 92.32 443.02 91.31 443.70
  C 91.29 443.71 91.29 443.71 91.31 443.72
  L 91.67 443.77
  C 91.73 443.78 91.77 443.84 91.75 443.89
  L 91.65 444.23
  C 91.60 444.37 91.67 444.52 91.81 444.58
  L 92.20 444.75
  C 92.30 444.80 92.35 444.91 92.32 445.02
  L 92.13 445.61
  C 92.11 445.68 92.17 445.75 92.25 445.75
  L 92.51 445.73
  C 92.62 445.72 92.64 445.76 92.57 445.85
  L 92.28 446.26
  C 92.11 446.49 91.85 446.64 91.56 446.68
  C 88.73 447.03 85.91 447.45 83.09 447.92
  C 78.21 448.73 73.22 448.30 68.18 448.86
  C 68.00 448.88 67.85 448.99 67.78 449.15
  L 67.67 449.44
  C 67.60 449.60 67.42 449.69 67.25 449.63
  C 66.64 449.42 66.44 449.21 66.64 448.99
  C 66.83 448.77 66.79 448.44 66.57 448.26
  C 66.26 448.01 65.92 448.01 65.54 448.25"
/>
<path stroke="#01719c" vector-effect="non-scaling-stroke" d="
  M 437.71 275.25
  C 436.63 277.93 434.18 286.35 431.83 287.57
  C 431.56 287.70 431.24 287.63 431.07 287.40
  C 430.74 286.97 430.60 286.56 430.67 286.19
  C 430.76 285.69 430.28 285.27 429.79 285.43
  L 418.78 289.02
  C 418.43 289.13 418.15 289.39 418.00 289.73
  L 417.41 291.17
  C 417.27 291.48 417.03 291.73 416.73 291.87
  C 414.80 292.76 412.84 292.94 410.85 292.41
  C 410.54 292.32 410.21 292.43 410.00 292.67
  C 409.87 292.81 409.72 292.92 409.54 293.00"
/>
<path stroke="#219fcf" vector-effect="non-scaling-stroke" d="
  M 409.54 293.00
  C 412.50 273.02 411.94 256.35 411.65 233.50"
/>
<path stroke="#80bdd5" vector-effect="non-scaling-stroke" d="
  M 411.65 233.50
  C 412.00 232.10 412.92 230.16 414.41 227.67
  C 418.57 220.68 422.74 213.72 426.91 206.79
  C 427.05 206.56 426.98 206.26 426.75 206.12
  L 411.71 197.00"
/>
<path stroke="#3aa7d1" vector-effect="non-scaling-stroke" d="
  M 411.71 197.00
  L 411.96 175.75"
/>
<path stroke="#4cadd2" vector-effect="non-scaling-stroke" d="
  M 411.98 170.78
  L 411.96 175.75"
/>
<path stroke="#85d8f8" vector-effect="non-scaling-stroke" d="
  M 411.96 175.75
  L 411.64 178.74
  C 411.54 179.72 410.49 180.29 409.61 179.85
  C 399.12 174.59 377.44 165.13 366.28 173.09
  C 360.82 176.99 356.21 181.53 352.45 186.72
  C 345.90 195.77 340.45 203.05 336.12 208.54
  C 335.91 208.80 335.76 209.09 335.67 209.41
  C 335.48 210.01 335.09 210.44 334.50 210.69
  C 334.20 210.81 333.95 211.02 333.78 211.29
  C 332.32 213.52 330.57 215.45 329.16 217.63
  C 326.17 222.24 322.00 226.71 319.21 230.70
  C 308.21 246.43 301.51 255.66 299.11 258.38
  C 296.13 261.77 293.97 264.32 292.63 266.01
  C 285.70 274.79 279.58 280.51 276.80 290.06
  C 276.66 290.54 276.69 290.46 276.22 290.55
  C 275.94 290.60 275.72 290.80 275.64 291.07
  C 274.64 294.48 274.30 297.97 272.72 301.07
  C 271.41 303.66 269.87 307.13 267.90 309.24
  C 266.64 310.59 266.11 312.65 265.50 313.67
  C 260.07 322.82 252.71 330.89 241.26 328.55
  C 234.63 327.19 227.68 326.92 220.41 327.75
  C 218.33 327.99 212.70 329.98 211.13 331.03
  C 208.34 332.89 206.29 334.95 204.98 337.21
  C 201.71 342.85 198.49 347.97 195.32 353.95
  C 190.57 362.90 195.18 372.85 201.71 379.97
  C 204.63 383.16 204.93 389.76 204.83 393.88
  C 204.82 394.18 204.96 394.47 205.19 394.66
  C 205.49 394.91 205.63 395.26 205.60 395.72
  C 205.58 396.04 205.42 396.34 205.17 396.54
  C 204.65 396.95 204.35 397.27 204.26 397.52
  C 201.43 405.79 193.05 412.60 187.32 418.96
  C 187.11 419.20 186.99 419.50 186.99 419.82
  L 187.01 421.00
  C 187.01 421.33 186.88 421.64 186.65 421.86
  C 177.35 430.87 169.72 441.52 160.82 450.93
  C 157.16 454.81 154.18 459.17 150.68 463.26
  C 150.56 463.40 150.33 463.38 150.24 463.22
  L 150.08 462.95
  C 149.96 462.73 149.66 462.70 149.49 462.89
  C 146.98 465.78 144.24 468.42 141.25 470.79"
/>
<path stroke="#4c9bb9" vector-effect="non-scaling-stroke" d="
  M 141.25 470.79
  C 134.92 459.89 131.41 448.13 130.71 435.50"
/>
<path stroke="#4ba3c4" vector-effect="non-scaling-stroke" d="
  M 130.71 435.50
  L 130.79 432.00"
/>
<path stroke="#b9e9fb" vector-effect="non-scaling-stroke" d="
  M 411.71 197.00
  L 386.51 182.01
  C 386.24 181.85 385.91 181.84 385.62 181.98
  C 385.23 182.17 384.95 182.51 384.79 183.00"
/>
<path stroke="#5acaf5" vector-effect="non-scaling-stroke" d="
  M 384.79 183.00
  L 383.86 182.04
  C 383.63 181.80 383.32 181.65 382.98 181.60
  L 375.79 180.70
  C 374.45 180.53 373.24 180.85 372.15 181.65
  C 366.68 185.68 362.42 191.34 358.14 195.70
  C 354.96 198.94 352.40 202.11 350.46 205.20
  C 348.22 208.77 345.81 211.31 343.84 214.28
  C 343.02 215.52 341.77 216.47 340.92 217.79
  C 339.20 220.43 337.94 222.09 335.95 224.06
  C 335.32 224.69 334.76 225.39 334.27 226.14
  C 330.02 232.73 325.47 239.12 320.60 245.29
  C 320.52 245.39 320.48 245.38 320.49 245.25
  L 320.51 244.96
  C 320.52 244.74 320.47 244.72 320.34 244.89
  L 316.48 250.16
  C 316.29 250.42 316.13 250.70 316.00 251.00
  C 315.80 251.47 315.46 252.06 314.99 252.77
  C 309.20 261.44 304.30 268.12 300.28 272.79
  C 297.72 275.76 293.90 281.45 288.82 289.84
  C 286.41 293.82 283.03 297.60 280.42 301.75
  C 276.84 307.47 274.63 317.80 269.65 323.23
  C 268.70 324.27 268.15 324.94 268.02 325.24
  C 267.11 327.28 265.86 329.08 264.27 330.65
  C 256.13 338.70 249.28 341.04 237.72 337.83
  C 235.93 337.33 234.44 337.96 233.25 339.71"
/>
<path stroke="#b9e9fb" vector-effect="non-scaling-stroke" d="
  M 233.25 339.71
  L 228.83 337.11
  C 228.43 336.88 227.92 337.01 227.68 337.41
  L 203.90 376.97
  C 203.56 377.54 203.74 378.28 204.31 378.62
  L 232.29 395.50"
/>
<path stroke="#5acaf5" vector-effect="non-scaling-stroke" d="
  M 232.29 395.50
  C 232.95 399.20 234.68 402.02 235.07 405.77
  C 235.14 406.46 235.38 407.43 235.79 408.67
  C 238.86 418.03 225.77 430.29 219.63 435.84
  C 218.94 436.47 218.88 436.42 219.45 435.67
  L 222.05 432.28
  C 223.54 430.35 223.44 430.27 221.77 432.04
  C 215.74 438.40 209.92 444.96 204.33 451.71
  C 204.33 451.71 204.37 451.72 204.44 451.74
  L 204.68 451.79
  C 204.69 451.79 204.70 451.80 204.69 451.81
  C 203.37 453.86 201.29 455.26 199.95 456.84
  C 195.53 462.03 191.02 467.15 186.41 472.19
  C 179.17 480.11 171.98 489.51 164.25 497.79"
/>
<path stroke="#3a95b8" vector-effect="non-scaling-stroke" d="
  M 164.25 497.79
  C 154.68 490.42 147.01 481.42 141.25 470.79"
/>
<path stroke="#2195c1" vector-effect="non-scaling-stroke" d="
  M 409.54 293.00
  C 403.99 324.80 392.70 354.38 378.71 383.50"
/>
<path stroke="#218db6" vector-effect="non-scaling-stroke" d="
  M 378.71 383.50
  C 357.59 425.59 331.95 464.67 301.78 500.72
  C 296.57 506.94 279.57 527.20 272.02 527.49
  C 254.93 528.16 236.34 526.23 216.26 521.69
  C 197.87 517.53 178.71 509.68 164.25 497.79"
/>
<path stroke="#015f83" vector-effect="non-scaling-stroke" d="
  M 412.79 369.25
  L 410.03 371.49
  C 409.79 371.69 409.50 371.80 409.19 371.83
  C 407.37 371.99 406.39 373.47 404.97 374.10
  C 401.90 375.47 398.80 376.77 395.67 378.00
  C 395.59 378.03 395.54 378.09 395.52 378.16
  L 395.46 378.42
  C 395.45 378.47 395.41 378.51 395.37 378.53
  C 393.75 379.18 379.16 387.99 378.99 385.39
  C 378.98 385.15 379.20 384.97 379.43 385.03
  L 379.71 385.11
  C 380.02 385.19 380.13 385.08 380.03 384.77
  C 379.80 384.08 379.36 383.66 378.71 383.50"
/>
<path stroke="#a0e1f9" vector-effect="non-scaling-stroke" d="
  M 411.65 233.50
  C 410.59 234.45 409.89 235.22 409.54 235.80
  C 370.61 300.55 331.66 365.36 292.68 430.25
  C 292.34 430.83 291.59 431.02 291.02 430.67
  L 232.29 395.50"
/>
<path stroke="#a0e1f9" vector-effect="non-scaling-stroke" d="
  M 384.79 183.00
  L 275.94 364.26
  C 275.80 364.50 275.49 364.58 275.25 364.44
  L 233.25 339.71"
/>
</g>
<path fill="#ffffff" d="
  M 0.00 0.00
  L 499.00 0.00
  L 499.00 581.00
  L 0.00 581.00
  L 0.00 0.00
  Z
  M 222.25 54.21
  L 221.14 54.27
  C 220.80 54.29 220.49 54.43 220.25 54.66
  L 61.59 205.42
  C 61.35 205.64 61.23 205.96 61.24 206.29
  L 61.29 207.25
  L 61.29 259.50
  L 61.29 359.50
  C 61.30 382.67 61.30 405.83 61.31 429.00
  C 61.31 436.24 63.02 441.81 65.54 448.25
  C 85.34 504.67 130.29 546.07 189.07 558.73
  C 217.92 564.94 244.07 563.61 276.72 563.49
  C 277.04 563.49 277.35 563.36 277.57 563.14
  C 279.37 561.39 281.62 559.03 284.31 556.06
  C 325.00 511.31 361.64 463.27 391.56 411.07
  C 399.35 397.48 406.42 383.54 412.79 369.25
  C 426.09 340.40 436.53 307.34 437.71 275.25
  C 437.78 274.64 437.82 274.04 437.83 273.44
  C 437.91 236.37 437.95 199.31 437.96 162.25
  L 437.94 88.50
  L 438.12 38.51
  C 438.12 38.27 437.98 38.06 437.76 37.98
  L 400.65 24.02
  C 399.94 23.75 399.18 23.68 398.44 23.81
  C 340.79 33.70 283.56 43.54 226.77 53.34
  C 225.26 53.60 223.75 53.89 222.25 54.21
  Z"
/>
<path fill="#01a6e4" d="
  M 437.94 88.50
  L 436.79 103.44
  C 436.76 103.76 436.63 104.07 436.40 104.30
  C 434.22 106.54 434.28 109.41 432.63 111.41
  C 430.10 114.50 426.65 115.86 422.30 115.47
  C 421.93 115.44 421.56 115.52 421.23 115.70
  C 419.24 116.80 417.48 116.60 415.94 115.11
  C 415.61 114.79 415.44 114.86 415.43 115.31
  L 415.33 117.99
  C 415.32 118.41 415.15 118.48 414.82 118.21
  C 412.66 116.40 412.95 112.69 412.45 110.00
  C 411.09 102.77 412.12 93.98 411.79 86.50
  L 411.87 76.73
  C 411.87 76.44 411.61 76.21 411.32 76.26
  L 387.00 80.29
  L 276.75 98.79
  L 274.75 99.29
  C 274.16 97.73 272.89 98.06 271.97 99.09
  C 269.45 101.92 266.72 104.51 263.78 106.87
  C 263.60 107.01 263.38 107.11 263.15 107.14
  C 262.10 107.29 261.09 107.22 260.12 106.92
  C 259.77 106.81 259.39 106.81 259.03 106.92
  L 250.24 109.74
  C 249.96 109.83 249.66 109.79 249.41 109.62
  C 249.24 109.50 241.92 111.90 240.42 112.00
  C 233.75 112.45 227.43 114.25 221.48 117.38
  C 221.19 117.53 220.93 117.74 220.71 117.99
  C 219.45 119.45 214.32 119.12 212.49 119.01
  C 211.96 118.98 211.90 118.79 212.30 118.44
  L 217.48 113.92
  C 217.71 113.72 217.66 113.36 217.39 113.22
  C 216.76 112.88 216.55 112.41 216.74 111.80
  C 216.89 111.31 216.70 111.23 216.15 111.56
  C 215.67 111.85 215.29 111.81 215.00 111.46
  L 251.91 76.31
  C 252.11 76.12 252.09 75.79 251.86 75.64
  L 222.97 55.60
  C 222.72 55.42 222.60 55.12 222.65 54.81
  C 222.72 54.45 222.58 54.25 222.25 54.21
  C 223.75 53.89 225.26 53.60 226.77 53.34
  C 283.56 43.54 340.79 33.70 398.44 23.81
  C 399.18 23.68 399.94 23.75 400.65 24.02
  L 437.76 37.98
  C 437.98 38.06 438.12 38.27 438.12 38.51
  L 437.94 88.50
  Z"
/>
<path fill="#015778" d="
  M 222.25 54.21
  C 222.58 54.25 222.72 54.45 222.65 54.81
  C 222.60 55.12 222.72 55.42 222.97 55.60
  L 251.86 75.64
  C 252.09 75.79 252.11 76.12 251.91 76.31
  L 215.00 111.46
  L 90.44 229.91
  C 90.26 230.09 89.97 230.10 89.77 229.94
  L 62.95 207.58
  C 62.70 207.37 62.38 207.25 62.05 207.25
  L 61.29 207.25
  L 61.24 206.29
  C 61.23 205.96 61.35 205.64 61.59 205.42
  L 220.25 54.66
  C 220.49 54.43 220.80 54.29 221.14 54.27
  L 222.25 54.21
  Z"
/>
<path fill="#b7e8fb" d="
  M 411.79 86.50
  L 411.71 129.00
  L 411.43 129.00
  C 411.19 128.99 411.00 129.19 411.00 129.43
  L 411.00 134.96
  C 411.00 135.26 410.88 135.33 410.63 135.16
  C 409.41 134.35 406.45 137.32 405.41 138.00
  C 398.88 142.28 394.04 149.72 388.50 150.00
  C 383.83 150.24 379.46 151.18 375.39 152.81
  C 371.42 154.39 367.26 154.41 363.53 156.29
  C 361.48 157.32 359.50 158.48 357.61 159.77
  C 356.72 160.38 355.23 161.18 353.12 162.18
  C 348.82 164.22 347.26 168.02 344.61 170.71
  C 342.74 172.59 340.83 174.42 338.86 176.20
  C 337.67 177.27 337.07 178.67 335.66 179.71
  C 334.01 180.92 333.16 181.56 333.09 181.62
  C 323.63 190.14 312.40 196.25 300.87 202.73
  C 296.79 205.03 292.40 208.17 287.96 210.62
  C 286.26 211.55 285.00 212.60 283.45 213.71
  C 283.23 213.87 283.11 213.81 283.10 213.54
  L 283.08 213.19
  C 283.06 212.93 282.81 212.74 282.56 212.81
  C 280.35 213.38 278.38 214.42 276.63 215.91
  C 276.52 216.00 276.36 215.99 276.26 215.89
  L 275.95 215.57
  C 275.46 215.06 275.21 215.16 275.22 215.87
  C 275.34 232.51 275.20 248.78 274.81 264.69
  C 274.69 269.58 270.23 275.88 267.49 279.48
  C 262.02 286.67 255.73 294.22 248.62 302.14
  C 244.18 307.08 236.73 313.95 230.05 314.80
  C 223.64 315.62 217.49 317.30 211.58 319.85
  C 211.28 319.98 211.02 320.19 210.84 320.45
  C 210.65 320.72 210.45 320.90 210.25 320.99
  C 206.68 322.54 204.29 324.32 203.08 326.34
  C 201.87 328.38 200.42 329.33 199.45 330.61
  C 195.58 335.72 192.04 341.04 188.81 346.57
  C 183.68 355.35 181.96 365.98 181.24 375.94
  C 181.22 376.25 181.20 376.25 181.19 375.94
  L 181.10 373.06
  C 181.09 372.73 181.05 372.73 181.00 373.06
  C 180.13 378.53 178.28 382.45 174.45 386.91
  C 168.38 393.96 162.26 400.96 156.08 407.91
  C 155.87 408.14 155.76 408.44 155.76 408.76
  L 155.76 409.15
  C 155.76 409.46 155.66 409.77 155.47 410.02
  C 152.16 414.33 148.58 418.40 144.71 422.24
  C 142.76 424.18 141.77 426.91 139.35 428.79
  C 137.94 429.88 136.93 430.75 136.32 431.40
  C 134.88 432.92 131.09 436.03 130.79 432.00
  L 130.79 361.00
  L 131.12 358.85
  C 131.15 358.70 131.21 358.68 131.31 358.79
  L 131.67 359.17
  C 131.92 359.44 132.03 359.39 132.01 359.03
  L 131.99 358.64
  C 131.98 358.41 132.03 358.40 132.15 358.59
  C 132.63 359.34 133.15 359.46 133.71 358.97
  C 135.64 357.25 137.25 356.00 138.54 355.23
  C 138.61 355.19 138.61 355.15 138.54 355.12
  L 138.25 354.99
  C 138.09 354.91 138.05 354.69 138.17 354.56
  C 162.10 328.61 176.21 311.75 201.32 283.07
  C 211.09 271.90 228.76 250.56 249.19 227.93
  C 249.39 227.70 249.50 227.41 249.50 227.11
  L 249.50 222.77
  C 249.50 222.45 249.61 222.15 249.81 221.92
  C 255.84 214.94 262.14 208.17 267.72 200.84
  C 269.26 198.83 271.15 197.16 273.39 195.83
  C 273.62 195.70 273.92 195.78 274.03 196.02
  L 274.16 196.30
  C 274.25 196.48 274.49 196.50 274.61 196.34
  C 275.04 195.73 275.26 195.04 275.25 194.25
  C 275.18 181.02 275.08 167.79 274.95 154.55
  C 274.95 154.15 275.08 154.10 275.33 154.41
  C 275.49 154.60 275.54 154.80 275.48 154.99
  C 275.32 155.49 275.55 155.58 276.16 155.26
  C 282.30 152.05 288.37 148.72 294.38 145.27
  C 295.01 144.91 295.96 144.47 297.23 143.94
  C 299.60 142.97 302.65 140.79 303.96 140.08
  C 307.43 138.19 310.87 136.22 314.27 134.19
  C 315.14 133.67 315.40 132.86 316.15 132.38
  C 318.20 131.09 320.76 129.58 323.83 127.87
  C 327.55 125.79 332.78 122.12 337.60 119.79
  C 343.22 117.05 348.10 113.38 353.76 110.69
  C 354.05 110.55 354.30 110.32 354.48 110.05
  C 355.26 108.86 355.56 108.25 356.94 107.58
  C 360.53 105.83 363.70 103.01 366.70 101.24
  C 369.09 99.84 371.47 98.41 373.82 96.96
  C 374.08 96.80 374.24 96.52 374.24 96.22
  L 374.25 95.09
  C 374.26 94.79 374.41 94.51 374.66 94.34
  C 377.09 92.79 378.46 91.34 381.40 90.14
  C 384.38 88.93 386.27 85.45 388.12 82.99
  C 388.29 82.76 388.28 82.44 388.08 82.23
  L 387.62 81.74
  C 387.49 81.60 387.50 81.38 387.63 81.25
  L 387.99 80.91
  C 388.24 80.66 388.20 80.55 387.85 80.56
  C 387.48 80.57 387.20 80.48 387.00 80.29
  L 411.32 76.26
  C 411.61 76.21 411.87 76.44 411.87 76.73
  L 411.79 86.50
  Z"
/>
<path fill="#def4fe" d="
  M 387.00 80.29
  C 387.20 80.48 387.48 80.57 387.85 80.56
  C 388.20 80.55 388.24 80.66 387.99 80.91
  L 387.63 81.25
  C 387.50 81.38 387.49 81.60 387.62 81.74
  L 388.08 82.23
  C 388.28 82.44 388.29 82.76 388.12 82.99
  C 386.27 85.45 384.38 88.93 381.40 90.14
  C 378.46 91.34 377.09 92.79 374.66 94.34
  C 374.41 94.51 374.26 94.79 374.25 95.09
  L 374.24 96.22
  C 374.24 96.52 374.08 96.80 373.82 96.96
  C 371.47 98.41 369.09 99.84 366.70 101.24
  C 363.70 103.01 360.53 105.83 356.94 107.58
  C 355.56 108.25 355.26 108.86 354.48 110.05
  C 354.30 110.32 354.05 110.55 353.76 110.69
  C 348.10 113.38 343.22 117.05 337.60 119.79
  C 332.78 122.12 327.55 125.79 323.83 127.87
  C 320.76 129.58 318.20 131.09 316.15 132.38
  C 315.40 132.86 315.14 133.67 314.27 134.19
  C 310.87 136.22 307.43 138.19 303.96 140.08
  C 302.65 140.79 299.60 142.97 297.23 143.94
  C 295.96 144.47 295.01 144.91 294.38 145.27
  C 288.37 148.72 282.30 152.05 276.16 155.26
  C 275.55 155.58 275.32 155.49 275.48 154.99
  C 275.54 154.80 275.49 154.60 275.33 154.41
  C 275.08 154.10 274.95 154.15 274.95 154.55
  C 275.08 167.79 275.18 181.02 275.25 194.25
  C 275.26 195.04 275.04 195.73 274.61 196.34
  C 274.49 196.50 274.25 196.48 274.16 196.30
  L 274.03 196.02
  C 273.92 195.78 273.62 195.70 273.39 195.83
  C 271.15 197.16 269.26 198.83 267.72 200.84
  C 262.14 208.17 255.84 214.94 249.81 221.92
  C 249.61 222.15 249.50 222.45 249.50 222.77
  L 249.50 227.11
  C 249.50 227.41 249.39 227.70 249.19 227.93
  C 228.76 250.56 211.09 271.90 201.32 283.07
  C 176.21 311.75 162.10 328.61 138.17 354.56
  C 138.05 354.69 138.09 354.91 138.25 354.99
  L 138.54 355.12
  C 138.61 355.15 138.61 355.19 138.54 355.23
  C 137.25 356.00 135.64 357.25 133.71 358.97
  C 133.15 359.46 132.63 359.34 132.15 358.59
  C 132.03 358.40 131.98 358.41 131.99 358.64
  L 132.01 359.03
  C 132.03 359.39 131.92 359.44 131.67 359.17
  L 131.31 358.79
  C 131.21 358.68 131.15 358.70 131.12 358.85
  L 130.79 361.00
  L 130.71 350.75
  L 130.79 311.75
  L 131.19 306.49
  C 131.34 304.62 131.51 304.61 131.71 306.48
  L 131.74 306.76
  C 131.94 308.59 132.03 308.59 132.01 306.74
  L 131.99 304.81
  C 131.99 304.56 132.25 304.40 132.47 304.52
  C 136.17 306.54 144.98 294.32 147.83 290.63
  C 147.91 290.54 147.89 290.49 147.76 290.50
  L 147.49 290.51
  C 146.72 290.56 146.77 290.45 147.62 290.19
  C 148.64 289.88 151.54 285.46 152.97 284.30
  C 157.27 280.81 160.79 275.71 163.81 272.38
  C 167.25 268.58 170.41 264.13 173.54 260.65
  C 178.82 254.77 184.12 248.91 189.43 243.06
  C 191.90 240.34 195.22 235.96 198.57 232.76
  C 199.80 231.58 200.31 229.85 201.40 228.90
  C 204.23 226.43 207.07 223.36 209.93 219.69
  C 216.76 210.94 225.37 202.85 232.20 194.35
  C 238.29 186.77 243.02 182.36 247.02 177.13
  C 250.35 172.77 253.14 169.57 256.27 165.79
  C 258.81 162.72 262.60 160.31 264.88 156.20
  C 264.97 156.05 264.92 155.98 264.75 156.00
  L 264.40 156.03
  C 264.05 156.07 263.98 155.95 264.18 155.66
  C 264.78 154.77 265.56 154.20 266.53 153.95
  C 266.87 153.87 267.16 153.65 267.35 153.35
  C 269.02 150.63 271.35 148.72 274.35 147.61
  C 274.46 147.57 274.58 147.61 274.65 147.69
  C 274.78 147.86 274.85 147.88 274.85 147.75
  C 275.11 132.92 275.25 118.10 275.26 103.27
  C 275.26 102.94 275.36 102.63 275.54 102.36
  C 276.26 101.29 276.66 100.10 276.75 98.79
  L 387.00 80.29
  Z"
/>
<path fill="#0192c9" d="
  M 411.79 86.50
  C 412.12 93.98 411.09 102.77 412.45 110.00
  C 412.95 112.69 412.66 116.40 414.82 118.21
  C 415.15 118.48 415.32 118.41 415.33 117.99
  L 415.43 115.31
  C 415.44 114.86 415.61 114.79 415.94 115.11
  C 417.48 116.60 419.24 116.80 421.23 115.70
  C 421.56 115.52 421.93 115.44 422.30 115.47
  C 426.65 115.86 430.10 114.50 432.63 111.41
  C 434.28 109.41 434.22 106.54 436.40 104.30
  C 436.63 104.07 436.76 103.76 436.79 103.44
  L 437.94 88.50
  L 437.96 162.25
  C 437.47 165.43 438.17 169.83 435.24 172.03
  C 434.99 172.22 434.80 172.49 434.70 172.80
  C 433.78 175.69 429.76 176.73 427.18 177.83
  C 426.88 177.95 426.55 177.99 426.23 177.94
  C 423.82 177.53 422.17 176.87 421.29 175.97
  C 418.70 173.33 415.59 171.60 411.98 170.78
  C 411.70 167.67 411.69 163.47 411.94 158.19
  C 412.25 151.76 412.17 142.03 411.71 129.00
  L 411.79 86.50
  Z"
/>
<path fill="#0192c9" d="
  M 274.75 99.29
  C 226.55 144.64 179.04 190.78 131.29 236.63
  C 131.06 236.85 130.92 237.16 130.91 237.49
  L 130.70 245.48
  L 129.74 252.19
  C 129.71 252.41 129.66 252.42 129.59 252.21
  L 128.96 250.33
  C 128.85 250.02 128.48 249.89 128.21 250.07
  C 122.60 253.71 116.52 256.10 109.97 257.25
  C 102.97 258.47 95.42 262.87 88.51 262.70
  C 82.89 262.57 79.39 262.67 78.00 263.01
  C 73.83 264.03 65.13 266.14 62.64 263.10
  C 62.61 263.06 62.59 263.06 62.58 263.11
  L 62.50 263.36
  C 62.44 263.57 62.38 263.57 62.33 263.36
  L 61.29 259.50
  L 61.29 207.25
  L 62.05 207.25
  C 62.38 207.25 62.70 207.37 62.95 207.58
  L 89.77 229.94
  C 89.97 230.10 90.26 230.09 90.44 229.91
  L 215.00 111.46
  C 215.29 111.81 215.67 111.85 216.15 111.56
  C 216.70 111.23 216.89 111.31 216.74 111.80
  C 216.55 112.41 216.76 112.88 217.39 113.22
  C 217.66 113.36 217.71 113.72 217.48 113.92
  L 212.30 118.44
  C 211.90 118.79 211.96 118.98 212.49 119.01
  C 214.32 119.12 219.45 119.45 220.71 117.99
  C 220.93 117.74 221.19 117.53 221.48 117.38
  C 227.43 114.25 233.75 112.45 240.42 112.00
  C 241.92 111.90 249.24 109.50 249.41 109.62
  C 249.66 109.79 249.96 109.83 250.24 109.74
  L 259.03 106.92
  C 259.39 106.81 259.77 106.81 260.12 106.92
  C 261.09 107.22 262.10 107.29 263.15 107.14
  C 263.38 107.11 263.60 107.01 263.78 106.87
  C 266.72 104.51 269.45 101.92 271.97 99.09
  C 272.89 98.06 274.16 97.73 274.75 99.29
  Z"
/>
<path fill="#ffffff" d="
  M 276.75 98.79
  C 276.66 100.10 276.26 101.29 275.54 102.36
  C 275.36 102.63 275.26 102.94 275.26 103.27
  C 275.25 118.10 275.11 132.92 274.85 147.75
  C 274.85 147.88 274.78 147.86 274.65 147.69
  C 274.58 147.61 274.46 147.57 274.35 147.61
  C 271.35 148.72 269.02 150.63 267.35 153.35
  C 267.16 153.65 266.87 153.87 266.53 153.95
  C 265.56 154.20 264.78 154.77 264.18 155.66
  C 263.98 155.95 264.05 156.07 264.40 156.03
  L 264.75 156.00
  C 264.92 155.98 264.97 156.05 264.88 156.20
  C 262.60 160.31 258.81 162.72 256.27 165.79
  C 253.14 169.57 250.35 172.77 247.02 177.13
  C 243.02 182.36 238.29 186.77 232.20 194.35
  C 225.37 202.85 216.76 210.94 209.93 219.69
  C 207.07 223.36 204.23 226.43 201.40 228.90
  C 200.31 229.85 199.80 231.58 198.57 232.76
  C 195.22 235.96 191.90 240.34 189.43 243.06
  C 184.12 248.91 178.82 254.77 173.54 260.65
  C 170.41 264.13 167.25 268.58 163.81 272.38
  C 160.79 275.71 157.27 280.81 152.97 284.30
  C 151.54 285.46 148.64 289.88 147.62 290.19
  C 146.77 290.45 146.72 290.56 147.49 290.51
  L 147.76 290.50
  C 147.89 290.49 147.91 290.54 147.83 290.63
  C 144.98 294.32 136.17 306.54 132.47 304.52
  C 132.25 304.40 131.99 304.56 131.99 304.81
  L 132.01 306.74
  C 132.03 308.59 131.94 308.59 131.74 306.76
  L 131.71 306.48
  C 131.51 304.61 131.34 304.62 131.19 306.49
  L 130.79 311.75
  L 130.70 245.48
  L 130.91 237.49
  C 130.92 237.16 131.06 236.85 131.29 236.63
  C 179.04 190.78 226.55 144.64 274.75 99.29
  L 276.75 98.79
  Z"
/>
<path fill="#96def9" d="
  M 411.71 129.00
  C 412.17 142.03 412.25 151.76 411.94 158.19
  C 411.69 163.47 411.70 167.67 411.98 170.78
  L 411.96 175.75
  L 411.64 178.74
  C 411.54 179.72 410.49 180.29 409.61 179.85
  C 399.12 174.59 377.44 165.13 366.28 173.09
  C 360.82 176.99 356.21 181.53 352.45 186.72
  C 345.90 195.77 340.45 203.05 336.12 208.54
  C 335.91 208.80 335.76 209.09 335.67 209.41
  C 335.48 210.01 335.09 210.44 334.50 210.69
  C 334.20 210.81 333.95 211.02 333.78 211.29
  C 332.32 213.52 330.57 215.45 329.16 217.63
  C 326.17 222.24 322.00 226.71 319.21 230.70
  C 308.21 246.43 301.51 255.66 299.11 258.38
  C 296.13 261.77 293.97 264.32 292.63 266.01
  C 285.70 274.79 279.58 280.51 276.80 290.06
  C 276.66 290.54 276.69 290.46 276.22 290.55
  C 275.94 290.60 275.72 290.80 275.64 291.07
  C 274.64 294.48 274.30 297.97 272.72 301.07
  C 271.41 303.66 269.87 307.13 267.90 309.24
  C 266.64 310.59 266.11 312.65 265.50 313.67
  C 260.07 322.82 252.71 330.89 241.26 328.55
  C 234.63 327.19 227.68 326.92 220.41 327.75
  C 218.33 327.99 212.70 329.98 211.13 331.03
  C 208.34 332.89 206.29 334.95 204.98 337.21
  C 201.71 342.85 198.49 347.97 195.32 353.95
  C 190.57 362.90 195.18 372.85 201.71 379.97
  C 204.63 383.16 204.93 389.76 204.83 393.88
  C 204.82 394.18 204.96 394.47 205.19 394.66
  C 205.49 394.91 205.63 395.26 205.60 395.72
  C 205.58 396.04 205.42 396.34 205.17 396.54
  C 204.65 396.95 204.35 397.27 204.26 397.52
  C 201.43 405.79 193.05 412.60 187.32 418.96
  C 187.11 419.20 186.99 419.50 186.99 419.82
  L 187.01 421.00
  C 187.01 421.33 186.88 421.64 186.65 421.86
  C 177.35 430.87 169.72 441.52 160.82 450.93
  C 157.16 454.81 154.18 459.17 150.68 463.26
  C 150.56 463.40 150.33 463.38 150.24 463.22
  L 150.08 462.95
  C 149.96 462.73 149.66 462.70 149.49 462.89
  C 146.98 465.78 144.24 468.42 141.25 470.79
  C 134.92 459.89 131.41 448.13 130.71 435.50
  L 130.79 432.00
  C 131.09 436.03 134.88 432.92 136.32 431.40
  C 136.93 430.75 137.94 429.88 139.35 428.79
  C 141.77 426.91 142.76 424.18 144.71 422.24
  C 148.58 418.40 152.16 414.33 155.47 410.02
  C 155.66 409.77 155.76 409.46 155.76 409.15
  L 155.76 408.76
  C 155.76 408.44 155.87 408.14 156.08 407.91
  C 162.26 400.96 168.38 393.96 174.45 386.91
  C 178.28 382.45 180.13 378.53 181.00 373.06
  C 181.05 372.73 181.09 372.73 181.10 373.06
  L 181.19 375.94
  C 181.20 376.25 181.22 376.25 181.24 375.94
  C 181.96 365.98 183.68 355.35 188.81 346.57
  C 192.04 341.04 195.58 335.72 199.45 330.61
  C 200.42 329.33 201.87 328.38 203.08 326.34
  C 204.29 324.32 206.68 322.54 210.25 320.99
  C 210.45 320.90 210.65 320.72 210.84 320.45
  C 211.02 320.19 211.28 319.98 211.58 319.85
  C 217.49 317.30 223.64 315.62 230.05 314.80
  C 236.73 313.95 244.18 307.08 248.62 302.14
  C 255.73 294.22 262.02 286.67 267.49 279.48
  C 270.23 275.88 274.69 269.58 274.81 264.69
  C 275.20 248.78 275.34 232.51 275.22 215.87
  C 275.21 215.16 275.46 215.06 275.95 215.57
  L 276.26 215.89
  C 276.36 215.99 276.52 216.00 276.63 215.91
  C 278.38 214.42 280.35 213.38 282.56 212.81
  C 282.81 212.74 283.06 212.93 283.08 213.19
  L 283.10 213.54
  C 283.11 213.81 283.23 213.87 283.45 213.71
  C 285.00 212.60 286.26 211.55 287.96 210.62
  C 292.40 208.17 296.79 205.03 300.87 202.73
  C 312.40 196.25 323.63 190.14 333.09 181.62
  C 333.16 181.56 334.01 180.92 335.66 179.71
  C 337.07 178.67 337.67 177.27 338.86 176.20
  C 340.83 174.42 342.74 172.59 344.61 170.71
  C 347.26 168.02 348.82 164.22 353.12 162.18
  C 355.23 161.18 356.72 160.38 357.61 159.77
  C 359.50 158.48 361.48 157.32 363.53 156.29
  C 367.26 154.41 371.42 154.39 375.39 152.81
  C 379.46 151.18 383.83 150.24 388.50 150.00
  C 394.04 149.72 398.88 142.28 405.41 138.00
  C 406.45 137.32 409.41 134.35 410.63 135.16
  C 410.88 135.33 411.00 135.26 411.00 134.96
  L 411.00 129.43
  C 411.00 129.19 411.19 128.99 411.43 129.00
  L 411.71 129.00
  Z"
/>
<path fill="#017baa" d="
  M 437.96 162.25
  C 437.95 199.31 437.91 236.37 437.83 273.44
  C 437.82 274.04 437.78 274.64 437.71 275.25
  C 436.63 277.93 434.18 286.35 431.83 287.57
  C 431.56 287.70 431.24 287.63 431.07 287.40
  C 430.74 286.97 430.60 286.56 430.67 286.19
  C 430.76 285.69 430.28 285.27 429.79 285.43
  L 418.78 289.02
  C 418.43 289.13 418.15 289.39 418.00 289.73
  L 417.41 291.17
  C 417.27 291.48 417.03 291.73 416.73 291.87
  C 414.80 292.76 412.84 292.94 410.85 292.41
  C 410.54 292.32 410.21 292.43 410.00 292.67
  C 409.87 292.81 409.72 292.92 409.54 293.00
  C 412.50 273.02 411.94 256.35 411.65 233.50
  C 412.00 232.10 412.92 230.16 414.41 227.67
  C 418.57 220.68 422.74 213.72 426.91 206.79
  C 427.05 206.56 426.98 206.26 426.75 206.12
  L 411.71 197.00
  L 411.96 175.75
  L 411.98 170.78
  C 415.59 171.60 418.70 173.33 421.29 175.97
  C 422.17 176.87 423.82 177.53 426.23 177.94
  C 426.55 177.99 426.88 177.95 427.18 177.83
  C 429.76 176.73 433.78 175.69 434.70 172.80
  C 434.80 172.49 434.99 172.22 435.24 172.03
  C 438.17 169.83 437.47 165.43 437.96 162.25
  Z"
/>
<path fill="#73d2f7" d="
  M 411.96 175.75
  L 411.71 197.00
  L 386.51 182.01
  C 386.24 181.85 385.91 181.84 385.62 181.98
  C 385.23 182.17 384.95 182.51 384.79 183.00
  L 383.86 182.04
  C 383.63 181.80 383.32 181.65 382.98 181.60
  L 375.79 180.70
  C 374.45 180.53 373.24 180.85 372.15 181.65
  C 366.68 185.68 362.42 191.34 358.14 195.70
  C 354.96 198.94 352.40 202.11 350.46 205.20
  C 348.22 208.77 345.81 211.31 343.84 214.28
  C 343.02 215.52 341.77 216.47 340.92 217.79
  C 339.20 220.43 337.94 222.09 335.95 224.06
  C 335.32 224.69 334.76 225.39 334.27 226.14
  C 330.02 232.73 325.47 239.12 320.60 245.29
  C 320.52 245.39 320.48 245.38 320.49 245.25
  L 320.51 244.96
  C 320.52 244.74 320.47 244.72 320.34 244.89
  L 316.48 250.16
  C 316.29 250.42 316.13 250.70 316.00 251.00
  C 315.80 251.47 315.46 252.06 314.99 252.77
  C 309.20 261.44 304.30 268.12 300.28 272.79
  C 297.72 275.76 293.90 281.45 288.82 289.84
  C 286.41 293.82 283.03 297.60 280.42 301.75
  C 276.84 307.47 274.63 317.80 269.65 323.23
  C 268.70 324.27 268.15 324.94 268.02 325.24
  C 267.11 327.28 265.86 329.08 264.27 330.65
  C 256.13 338.70 249.28 341.04 237.72 337.83
  C 235.93 337.33 234.44 337.96 233.25 339.71
  L 228.83 337.11
  C 228.43 336.88 227.92 337.01 227.68 337.41
  L 203.90 376.97
  C 203.56 377.54 203.74 378.28 204.31 378.62
  L 232.29 395.50
  C 232.95 399.20 234.68 402.02 235.07 405.77
  C 235.14 406.46 235.38 407.43 235.79 408.67
  C 238.86 418.03 225.77 430.29 219.63 435.84
  C 218.94 436.47 218.88 436.42 219.45 435.67
  L 222.05 432.28
  C 223.54 430.35 223.44 430.27 221.77 432.04
  C 215.74 438.40 209.92 444.96 204.33 451.71
  C 204.33 451.71 204.37 451.72 204.44 451.74
  L 204.68 451.79
  C 204.69 451.79 204.70 451.80 204.69 451.81
  C 203.37 453.86 201.29 455.26 199.95 456.84
  C 195.53 462.03 191.02 467.15 186.41 472.19
  C 179.17 480.11 171.98 489.51 164.25 497.79
  C 154.68 490.42 147.01 481.42 141.25 470.79
  C 144.24 468.42 146.98 465.78 149.49 462.89
  C 149.66 462.70 149.96 462.73 150.08 462.95
  L 150.24 463.22
  C 150.33 463.38 150.56 463.40 150.68 463.26
  C 154.18 459.17 157.16 454.81 160.82 450.93
  C 169.72 441.52 177.35 430.87 186.65 421.86
  C 186.88 421.64 187.01 421.33 187.01 421.00
  L 186.99 419.82
  C 186.99 419.50 187.11 419.20 187.32 418.96
  C 193.05 412.60 201.43 405.79 204.26 397.52
  C 204.35 397.27 204.65 396.95 205.17 396.54
  C 205.42 396.34 205.58 396.04 205.60 395.72
  C 205.63 395.26 205.49 394.91 205.19 394.66
  C 204.96 394.47 204.82 394.18 204.83 393.88
  C 204.93 389.76 204.63 383.16 201.71 379.97
  C 195.18 372.85 190.57 362.90 195.32 353.95
  C 198.49 347.97 201.71 342.85 204.98 337.21
  C 206.29 334.95 208.34 332.89 211.13 331.03
  C 212.70 329.98 218.33 327.99 220.41 327.75
  C 227.68 326.92 234.63 327.19 241.26 328.55
  C 252.71 330.89 260.07 322.82 265.50 313.67
  C 266.11 312.65 266.64 310.59 267.90 309.24
  C 269.87 307.13 271.41 303.66 272.72 301.07
  C 274.30 297.97 274.64 294.48 275.64 291.07
  C 275.72 290.80 275.94 290.60 276.22 290.55
  C 276.69 290.46 276.66 290.54 276.80 290.06
  C 279.58 280.51 285.70 274.79 292.63 266.01
  C 293.97 264.32 296.13 261.77 299.11 258.38
  C 301.51 255.66 308.21 246.43 319.21 230.70
  C 322.00 226.71 326.17 222.24 329.16 217.63
  C 330.57 215.45 332.32 213.52 333.78 211.29
  C 333.95 211.02 334.20 210.81 334.50 210.69
  C 335.09 210.44 335.48 210.01 335.67 209.41
  C 335.76 209.09 335.91 208.80 336.12 208.54
  C 340.45 203.05 345.90 195.77 352.45 186.72
  C 356.21 181.53 360.82 176.99 366.28 173.09
  C 377.44 165.13 399.12 174.59 409.61 179.85
  C 410.49 180.29 411.54 179.72 411.64 178.74
  L 411.96 175.75
  Z"
/>
<path fill="#41c2f3" d="
  M 384.79 183.00
  L 275.94 364.26
  C 275.80 364.50 275.49 364.58 275.25 364.44
  L 233.25 339.71
  C 234.44 337.96 235.93 337.33 237.72 337.83
  C 249.28 341.04 256.13 338.70 264.27 330.65
  C 265.86 329.08 267.11 327.28 268.02 325.24
  C 268.15 324.94 268.70 324.27 269.65 323.23
  C 274.63 317.80 276.84 307.47 280.42 301.75
  C 283.03 297.60 286.41 293.82 288.82 289.84
  C 293.90 281.45 297.72 275.76 300.28 272.79
  C 304.30 268.12 309.20 261.44 314.99 252.77
  C 315.46 252.06 315.80 251.47 316.00 251.00
  C 316.13 250.70 316.29 250.42 316.48 250.16
  L 320.34 244.89
  C 320.47 244.72 320.52 244.74 320.51 244.96
  L 320.49 245.25
  C 320.48 245.38 320.52 245.39 320.60 245.29
  C 325.47 239.12 330.02 232.73 334.27 226.14
  C 334.76 225.39 335.32 224.69 335.95 224.06
  C 337.94 222.09 339.20 220.43 340.92 217.79
  C 341.77 216.47 343.02 215.52 343.84 214.28
  C 345.81 211.31 348.22 208.77 350.46 205.20
  C 352.40 202.11 354.96 198.94 358.14 195.70
  C 362.42 191.34 366.68 185.68 372.15 181.65
  C 373.24 180.85 374.45 180.53 375.79 180.70
  L 382.98 181.60
  C 383.32 181.65 383.63 181.80 383.86 182.04
  L 384.79 183.00
  Z"
/>
<path fill="#ffffff" d="
  M 411.71 197.00
  L 426.75 206.12
  C 426.98 206.26 427.05 206.56 426.91 206.79
  C 422.74 213.72 418.57 220.68 414.41 227.67
  C 412.92 230.16 412.00 232.10 411.65 233.50
  C 410.59 234.45 409.89 235.22 409.54 235.80
  C 370.61 300.55 331.66 365.36 292.68 430.25
  C 292.34 430.83 291.59 431.02 291.02 430.67
  L 232.29 395.50
  L 204.31 378.62
  C 203.74 378.28 203.56 377.54 203.90 376.97
  L 227.68 337.41
  C 227.92 337.01 228.43 336.88 228.83 337.11
  L 233.25 339.71
  L 275.25 364.44
  C 275.49 364.58 275.80 364.50 275.94 364.26
  L 384.79 183.00
  C 384.95 182.51 385.23 182.17 385.62 181.98
  C 385.91 181.84 386.24 181.85 386.51 182.01
  L 411.71 197.00
  Z"
/>
<path fill="#41c2f3" d="
  M 411.65 233.50
  C 411.94 256.35 412.50 273.02 409.54 293.00
  C 403.99 324.80 392.70 354.38 378.71 383.50
  C 357.59 425.59 331.95 464.67 301.78 500.72
  C 296.57 506.94 279.57 527.20 272.02 527.49
  C 254.93 528.16 236.34 526.23 216.26 521.69
  C 197.87 517.53 178.71 509.68 164.25 497.79
  C 171.98 489.51 179.17 480.11 186.41 472.19
  C 191.02 467.15 195.53 462.03 199.95 456.84
  C 201.29 455.26 203.37 453.86 204.69 451.81
  C 204.70 451.80 204.69 451.79 204.68 451.79
  L 204.44 451.74
  C 204.37 451.72 204.33 451.71 204.33 451.71
  C 209.92 444.96 215.74 438.40 221.77 432.04
  C 223.44 430.27 223.54 430.35 222.05 432.28
  L 219.45 435.67
  C 218.88 436.42 218.94 436.47 219.63 435.84
  C 225.77 430.29 238.86 418.03 235.79 408.67
  C 235.38 407.43 235.14 406.46 235.07 405.77
  C 234.68 402.02 232.95 399.20 232.29 395.50
  L 291.02 430.67
  C 291.59 431.02 292.34 430.83 292.68 430.25
  C 331.66 365.36 370.61 300.55 409.54 235.80
  C 409.89 235.22 410.59 234.45 411.65 233.50
  Z"
/>
<path fill="#017baa" d="
  M 130.70 245.48
  L 130.79 311.75
  L 130.71 350.75
  L 130.41 349.75
  C 130.33 349.48 130.29 349.48 130.28 349.77
  L 130.16 357.76
  C 130.15 358.73 130.03 358.71 129.82 357.71
  C 128.96 353.74 125.94 357.47 124.68 356.58
  C 124.45 356.42 124.15 356.36 123.87 356.44
  L 118.44 358.01
  C 118.11 358.11 117.80 358.25 117.51 358.44
  C 115.45 359.79 112.72 359.51 110.94 360.05
  C 105.51 361.70 100.29 362.73 95.30 363.14
  C 91.54 363.45 88.82 365.22 85.37 365.24
  C 80.32 365.27 74.93 365.73 69.20 366.64
  C 66.45 367.07 64.27 366.17 62.68 363.93
  C 62.65 363.88 62.58 363.87 62.52 363.90
  L 62.28 364.01
  C 62.23 364.04 62.17 364.01 62.15 363.95
  L 61.29 359.50
  L 61.29 259.50
  L 62.33 263.36
  C 62.38 263.57 62.44 263.57 62.50 263.36
  L 62.58 263.11
  C 62.59 263.06 62.61 263.06 62.64 263.10
  C 65.13 266.14 73.83 264.03 78.00 263.01
  C 79.39 262.67 82.89 262.57 88.51 262.70
  C 95.42 262.87 102.97 258.47 109.97 257.25
  C 116.52 256.10 122.60 253.71 128.21 250.07
  C 128.48 249.89 128.85 250.02 128.96 250.33
  L 129.59 252.21
  C 129.66 252.42 129.71 252.41 129.74 252.19
  L 130.70 245.48
  Z"
/>
<path fill="#00678e" d="
  M 437.71 275.25
  C 436.53 307.34 426.09 340.40 412.79 369.25
  L 410.03 371.49
  C 409.79 371.69 409.50 371.80 409.19 371.83
  C 407.37 371.99 406.39 373.47 404.97 374.10
  C 401.90 375.47 398.80 376.77 395.67 378.00
  C 395.59 378.03 395.54 378.09 395.52 378.16
  L 395.46 378.42
  C 395.45 378.47 395.41 378.51 395.37 378.53
  C 393.75 379.18 379.16 387.99 378.99 385.39
  C 378.98 385.15 379.20 384.97 379.43 385.03
  L 379.71 385.11
  C 380.02 385.19 380.13 385.08 380.03 384.77
  C 379.80 384.08 379.36 383.66 378.71 383.50
  C 392.70 354.38 403.99 324.80 409.54 293.00
  C 409.72 292.92 409.87 292.81 410.00 292.67
  C 410.21 292.43 410.54 292.32 410.85 292.41
  C 412.84 292.94 414.80 292.76 416.73 291.87
  C 417.03 291.73 417.27 291.48 417.41 291.17
  L 418.00 289.73
  C 418.15 289.39 418.43 289.13 418.78 289.02
  L 429.79 285.43
  C 430.28 285.27 430.76 285.69 430.67 286.19
  C 430.60 286.56 430.74 286.97 431.07 287.40
  C 431.24 287.63 431.56 287.70 431.83 287.57
  C 434.18 286.35 436.63 277.93 437.71 275.25
  Z"
/>
<path fill="#00678e" d="
  M 130.71 350.75
  L 130.79 361.00
  L 130.79 432.00
  L 130.71 435.50
  L 130.30 436.48
  C 130.21 436.70 130.13 436.69 130.07 436.46
  L 129.98 436.14
  C 129.93 435.92 129.70 435.80 129.48 435.87
  C 125.31 437.28 121.56 439.27 117.30 439.96
  C 114.75 440.38 112.19 440.76 109.62 441.09
  C 104.77 441.72 99.57 443.47 94.30 443.98
  C 94.00 444.00 93.71 443.88 93.53 443.64
  C 93.06 443.00 92.32 443.02 91.31 443.70
  C 91.29 443.71 91.29 443.71 91.31 443.72
  L 91.67 443.77
  C 91.73 443.78 91.77 443.84 91.75 443.89
  L 91.65 444.23
  C 91.60 444.37 91.67 444.52 91.81 444.58
  L 92.20 444.75
  C 92.30 444.80 92.35 444.91 92.32 445.02
  L 92.13 445.61
  C 92.11 445.68 92.17 445.75 92.25 445.75
  L 92.51 445.73
  C 92.62 445.72 92.64 445.76 92.57 445.85
  L 92.28 446.26
  C 92.11 446.49 91.85 446.64 91.56 446.68
  C 88.73 447.03 85.91 447.45 83.09 447.92
  C 78.21 448.73 73.22 448.30 68.18 448.86
  C 68.00 448.88 67.85 448.99 67.78 449.15
  L 67.67 449.44
  C 67.60 449.60 67.42 449.69 67.25 449.63
  C 66.64 449.42 66.44 449.21 66.64 448.99
  C 66.83 448.77 66.79 448.44 66.57 448.26
  C 66.26 448.01 65.92 448.01 65.54 448.25
  C 63.02 441.81 61.31 436.24 61.31 429.00
  C 61.30 405.83 61.30 382.67 61.29 359.50
  L 62.15 363.95
  C 62.17 364.01 62.23 364.04 62.28 364.01
  L 62.52 363.90
  C 62.58 363.87 62.65 363.88 62.68 363.93
  C 64.27 366.17 66.45 367.07 69.20 366.64
  C 74.93 365.73 80.32 365.27 85.37 365.24
  C 88.82 365.22 91.54 363.45 95.30 363.14
  C 100.29 362.73 105.51 361.70 110.94 360.05
  C 112.72 359.51 115.45 359.79 117.51 358.44
  C 117.80 358.25 118.11 358.11 118.44 358.01
  L 123.87 356.44
  C 124.15 356.36 124.45 356.42 124.68 356.58
  C 125.94 357.47 128.96 353.74 129.82 357.71
  C 130.03 358.71 130.15 358.73 130.16 357.76
  L 130.28 349.77
  C 130.29 349.48 130.33 349.48 130.41 349.75
  L 130.71 350.75
  Z"
/>
<path fill="#015778" d="
  M 412.79 369.25
  C 406.42 383.54 399.35 397.48 391.56 411.07
  C 361.64 463.27 325.00 511.31 284.31 556.06
  C 281.62 559.03 279.37 561.39 277.57 563.14
  C 277.35 563.36 277.04 563.49 276.72 563.49
  C 244.07 563.61 217.92 564.94 189.07 558.73
  C 130.29 546.07 85.34 504.67 65.54 448.25
  C 65.92 448.01 66.26 448.01 66.57 448.26
  C 66.79 448.44 66.83 448.77 66.64 448.99
  C 66.44 449.21 66.64 449.42 67.25 449.63
  C 67.42 449.69 67.60 449.60 67.67 449.44
  L 67.78 449.15
  C 67.85 448.99 68.00 448.88 68.18 448.86
  C 73.22 448.30 78.21 448.73 83.09 447.92
  C 85.91 447.45 88.73 447.03 91.56 446.68
  C 91.85 446.64 92.11 446.49 92.28 446.26
  L 92.57 445.85
  C 92.64 445.76 92.62 445.72 92.51 445.73
  L 92.25 445.75
  C 92.17 445.75 92.11 445.68 92.13 445.61
  L 92.32 445.02
  C 92.35 444.91 92.30 444.80 92.20 444.75
  L 91.81 444.58
  C 91.67 444.52 91.60 444.37 91.65 444.23
  L 91.75 443.89
  C 91.77 443.84 91.73 443.78 91.67 443.77
  L 91.31 443.72
  C 91.29 443.71 91.29 443.71 91.31 443.70
  C 92.32 443.02 93.06 443.00 93.53 443.64
  C 93.71 443.88 94.00 444.00 94.30 443.98
  C 99.57 443.47 104.77 441.72 109.62 441.09
  C 112.19 440.76 114.75 440.38 117.30 439.96
  C 121.56 439.27 125.31 437.28 129.48 435.87
  C 129.70 435.80 129.93 435.92 129.98 436.14
  L 130.07 436.46
  C 130.13 436.69 130.21 436.70 130.30 436.48
  L 130.71 435.50
  C 131.41 448.13 134.92 459.89 141.25 470.79
  C 147.01 481.42 154.68 490.42 164.25 497.79
  C 178.71 509.68 197.87 517.53 216.26 521.69
  C 236.34 526.23 254.93 528.16 272.02 527.49
  C 279.57 527.20 296.57 506.94 301.78 500.72
  C 331.95 464.67 357.59 425.59 378.71 383.50
  C 379.36 383.66 379.80 384.08 380.03 384.77
  C 380.13 385.08 380.02 385.19 379.71 385.11
  L 379.43 385.03
  C 379.20 384.97 378.98 385.15 378.99 385.39
  C 379.16 387.99 393.75 379.18 395.37 378.53
  C 395.41 378.51 395.45 378.47 395.46 378.42
  L 395.52 378.16
  C 395.54 378.09 395.59 378.03 395.67 378.00
  C 398.80 376.77 401.90 375.47 404.97 374.10
  C 406.39 373.47 407.37 371.99 409.19 371.83
  C 409.50 371.80 409.79 371.69 410.03 371.49
  L 412.79 369.25
  Z"
/>
</svg>
